HIERARCHY
ROOT hip
{
  OFFSET 0 0 0
  CHANNELS 6 Xposition Yposition Zposition Zrotation Yrotation Xrotation
  JOINT abdomen
  {
    OFFSET 0 20.6881 -0.73152
    CHANNELS 3 Zrotation Xrotation Yrotation
    JOINT chest
    {
      OFFSET 0 11.7043 -0.48768
      CHANNELS 3 Zrotation Xrotation Yrotation
      JOINT neck
      {
        OFFSET 0 22.1894 -2.19456
        CHANNELS 3 Zrotation Xrotation Yrotation
        JOINT head
        {
          OFFSET -0.24384 7.07133 1.2192
          CHANNELS 3 Zrotation Xrotation Yrotation
          JOINT leftEye
          {
            OFFSET 4.14528 8.04674 8.04672
            CHANNELS 3 Zrotation Xrotation Yrotation
            End Site
            {
              OFFSET 1 0 0
            }
          }
          JOINT rightEye
          {
            OFFSET -3.6576 8.04674 8.04672
            CHANNELS 3 Zrotation Xrotation Yrotation
            End Site
            {
              OFFSET 1 0 0
            }
          }
        }
      }
      JOINT rCollar
      {
        OFFSET -2.68224 19.2634 -4.8768
        CHANNELS 3 Zrotation Xrotation Yrotation
        JOINT rShldr
        {
          OFFSET -8.77824 -1.95073 1.46304
          CHANNELS 3 Zrotation Xrotation Yrotation
          JOINT rForeArm
          {
            OFFSET -28.1742 -1.7115 0.48768
            CHANNELS 3 Zrotation Xrotation Yrotation
            JOINT rHand
            {
              OFFSET -22.5879 0.773209 7.07136
              CHANNELS 3 Zrotation Xrotation Yrotation
              JOINT rThumb1
              {
                OFFSET -1.2192 -0.487915 3.41376
                CHANNELS 3 Zrotation Xrotation Yrotation
                JOINT rThumb2
                {
                  OFFSET -3.37035 -0.52449 3.41376
                  CHANNELS 3 Zrotation Xrotation Yrotation
                  End Site
                  {
                    OFFSET -1.78271 -1.18214 1.43049
                  }
                }
              }
              JOINT rIndex1
              {
                OFFSET -7.75947 0.938293 5.60832
                CHANNELS 3 Zrotation Xrotation Yrotation
                JOINT rIndex2
                {
                  OFFSET -2.54057 -0.884171 1.56538
                  CHANNELS 3 Zrotation Xrotation Yrotation
                  End Site
                  {
                    OFFSET -1.62519 -0.234802 1.16502
                  }
                }
              }
              JOINT rMid1
              {
                OFFSET -8.24714 1.18213 3.41376
                CHANNELS 3 Zrotation Xrotation Yrotation
                JOINT rMid2
                {
                  OFFSET -3.10165 -0.590103 1.0647
                  CHANNELS 3 Zrotation Xrotation Yrotation
                  End Site
                  {
                    OFFSET -2.48547 -0.328903 0.83742
                  }
                }
              }
              JOINT rRing1
              {
                OFFSET -8.82822 0.546677 1.51678
                CHANNELS 3 Zrotation Xrotation Yrotation
                JOINT rRing2
                {
                  OFFSET -2.60934 -0.819778 -0.0198488
                  CHANNELS 3 Zrotation Xrotation Yrotation
                  End Site
                  {
                    OFFSET -2.33842 -0.294052 0.168128
                  }
                }
              }
              JOINT rPinky1
              {
                OFFSET -8.27202 -0.0477905 -0.4584
                CHANNELS 3 Zrotation Xrotation Yrotation
                JOINT rPinky2
                {
                  OFFSET -1.82734 -0.647385 -0.700984
                  CHANNELS 3 Zrotation Xrotation Yrotation
                  End Site
                  {
                    OFFSET -1.69225 -0.51767 -0.607171
                  }
                }
              }
            }
          }
        }
      }
      JOINT lCollar
      {
        OFFSET 2.68224 19.2634 -4.8768
        CHANNELS 3 Zrotation Xrotation Yrotation
        JOINT lShldr
        {
          OFFSET 8.77824 -1.95073 1.46304
          CHANNELS 3 Zrotation Xrotation Yrotation
          JOINT lForeArm
          {
            OFFSET 28.1742 -1.7115 0.48768
            CHANNELS 3 Zrotation Xrotation Yrotation
            JOINT lHand
            {
              OFFSET 22.5879 0.773209 7.07136
              CHANNELS 3 Zrotation Xrotation Yrotation
              JOINT lThumb1
              {
                OFFSET 1.2192 -0.487915 3.41376
                CHANNELS 3 Zrotation Xrotation Yrotation
                JOINT lThumb2
                {
                  OFFSET 3.37035 -0.52449 3.41376
                  CHANNELS 3 Zrotation Xrotation Yrotation
                  End Site
                  {
                    OFFSET 1.78271 -1.18214 1.43049
                  }
                }
              }
              JOINT lIndex1
              {
                OFFSET 7.75947 0.938293 5.60832
                CHANNELS 3 Zrotation Xrotation Yrotation
                JOINT lIndex2
                {
                  OFFSET 2.54057 -0.884171 1.56538
                  CHANNELS 3 Zrotation Xrotation Yrotation
                  End Site
                  {
                    OFFSET 1.62519 -0.234802 1.16502
                  }
                }
              }
              JOINT lMid1
              {
                OFFSET 8.24714 1.18213 3.41376
                CHANNELS 3 Zrotation Xrotation Yrotation
                JOINT lMid2
                {
                  OFFSET 3.10165 -0.590103 1.0647
                  CHANNELS 3 Zrotation Xrotation Yrotation
                  End Site
                  {
                    OFFSET 2.48547 -0.328903 0.83742
                  }
                }
              }
              JOINT lRing1
              {
                OFFSET 8.82822 0.546677 1.51678
                CHANNELS 3 Zrotation Xrotation Yrotation
                JOINT lRing2
                {
                  OFFSET 2.60934 -0.819778 -0.0198488
                  CHANNELS 3 Zrotation Xrotation Yrotation
                  End Site
                  {
                    OFFSET 2.33842 -0.294052 0.168128
                  }
                }
              }
              JOINT lPinky1
              {
                OFFSET 8.27202 -0.0477905 -0.4584
                CHANNELS 3 Zrotation Xrotation Yrotation
                JOINT lPinky2
                {
                  OFFSET 1.82734 -0.647385 -0.700984
                  CHANNELS 3 Zrotation Xrotation Yrotation
                  End Site
                  {
                    OFFSET 1.69225 -0.51767 -0.607171
                  }
                }
              }
            }
          }
        }
      }
    }
  }
  JOINT rButtock
  {
    OFFSET -8.77824 4.35084 1.2192
    CHANNELS 3 Zrotation Xrotation Yrotation
    JOINT rThigh
    {
      OFFSET 0 -1.70687 -2.19456
      CHANNELS 3 Zrotation Xrotation Yrotation
      JOINT rShin
      {
        OFFSET 0 -36.8199 0.73152
        CHANNELS 3 Zrotation Xrotation Yrotation
        JOINT rFoot
        {
          OFFSET 0.73152 -45.1104 -5.12064
          CHANNELS 3 Zrotation Xrotation Yrotation
          End Site
          {
            OFFSET -1.1221 -3.69964 12.103
          }
        }
      }
    }
  }
  JOINT lButtock
  {
    OFFSET 8.77824 4.35084 1.2192
    CHANNELS 3 Zrotation Xrotation Yrotation
    JOINT lThigh
    {
      OFFSET 0 -1.70687 -2.19456
      CHANNELS 3 Zrotation Xrotation Yrotation
      JOINT lShin
      {
        OFFSET 0 -36.8199 0.73152
        CHANNELS 3 Zrotation Xrotation Yrotation
        JOINT lFoot
        {
          OFFSET -0.73152 -45.1104 -5.12064
          CHANNELS 3 Zrotation Xrotation Yrotation
          End Site
          {
            OFFSET 1.1221 -3.69964 12.103
          }
        }
      }
    }
  }
}
MOTION
Frames:	4
Frame Time:	0.03333
-1.1931999921798706 70.59149932861328 1.6813000440597534 24.231001138687134 73.4421980381012 32.527001202106476 -6.575299948453903 19.89760011434555 3.5495301336050034 -2.172099966555834 -12.137399464845657 0.6272839894518256 -1.647619977593422 9.306099861860275 3.530130051076412 -4.0751998499035835 -25.167301297187805 6.403609737753868 0.0 0.0 0.0 0.0 0.0 0.0 0.0 0.0 0.0 -5.906670168042183 9.257639721035957 54.691298604011536 -27.227299511432648 -27.122899889945984 62.634698152542114 -0.13515399768948555 10.33339999616146 1.4685300551354885 -1.8046364402835025e-09 2.9979219107190147e-09 -1.0589928933768533e-09 -3.1245406262314646e-09 5.192646312934812e-09 -1.8110313249053434e-09 -1.8046364402835025e-09 2.9979219107190147e-09 -1.0589928933768533e-09 7.7309102565050125 5.474880114197731 0.41731400415301323 -1.8046364402835025e-09 2.9979219107190147e-09 -1.0589928933768533e-09 2.905540131032467 0.9651830233633518 0.102901995414868 -1.8046364402835025e-09 2.9979219107190147e-09 -1.0589928933768533e-09 10.27859978377819 0.7318009994924068 0.025912300043273717 -1.8046364402835025e-09 2.9979219107190147e-09 -1.0589928933768533e-09 2.221670038998127 -0.733487019315362 -0.2089200052432716 0.0 0.0 0.0 -6.852980330586433 43.54689985513687 -78.80170226097107 27.89740115404129 -40.9268993139267 -85.5972021818161 1.8319100327789783 -35.38539916276932 5.730959996581078 -6.011191544530448e-11 -1.4222223398974165e-09 6.036771083017811e-10 -1.1510792319313623e-10 -2.4300561562995426e-09 1.0334133548894897e-09 -6.011191544530448e-11 -1.4222223398974165e-09 6.036771083017811e-10 -7.7309102565050125 5.474880114197731 -0.41731400415301323 -6.011191544530448e-11 -1.4222223398974165e-09 6.036771083017811e-10 -2.905540131032467 0.9651830233633518 -0.102901995414868 -6.011191544530448e-11 -1.4222223398974165e-09 6.036771083017811e-10 -10.27859978377819 0.7318009994924068 -0.025912300043273717 -6.011191544530448e-11 -1.4222223398974165e-09 6.036771083017811e-10 -2.221670038998127 -0.733487019315362 0.2089200052432716 0.0 0.0 0.0 -22.36360028386116 -62.67679810523987 -11.016600206494331 -1.8687500059604645 67.17130064964294 1.6910600289702415 -3.4144101664423943 -15.18349975347519 -4.136970117688179 0.0 0.0 0.0 22.598600685596466 -29.133701026439667 -9.958769828081131 -0.022683499264530838 29.420700073242188 -0.917257983237505 -1.378489974886179 8.894990310072899 16.55680015683174
-2.0753999948501587 71.03720092773438 3.401400089263916 39.49999898672104 80.41429996490479 48.06899964809418 -5.203360095620155 20.297100394964218 2.7515099197626114 -1.5672899968922138 -12.179099768400192 0.5403260188177228 -1.5092399530112743 9.293870329856873 4.3055399134755135 -4.677920043468475 -24.754200875759125 7.830679714679718 0.0 0.0 0.0 0.0 0.0 0.0 0.0 5.115907697472721e-12 0.0 -6.220070198178291 13.961300253868103 53.18300127983093 -27.552399337291718 -28.403399884700775 64.6999990940094 -0.10744899976998568 8.961319997906685 1.2705100234597921 -2.4581936486356426e-09 4.241087481204886e-09 -1.3096723705530167e-09 -4.253877250448568e-09 7.346443453570828e-09 -2.2509993868879974e-09 -2.4581936486356426e-09 4.241087481204886e-09 -1.3096723705530167e-09 7.7309102565050125 5.474880114197731 0.41731400415301323 -2.4581936486356426e-09 4.241087481204886e-09 -1.3096723705530167e-09 2.905540131032467 0.9651830233633518 0.102901995414868 -2.4581936486356426e-09 4.241087481204886e-09 -1.3096723705530167e-09 10.27859978377819 0.7318009994924068 0.025912300043273717 -2.4581936486356426e-09 4.241087481204886e-09 -1.3096723705530167e-09 2.221670038998127 -0.733487019315362 -0.2089200052432716 0.0 5.115907697472721e-12 0.0 -1.226730002090335 38.58869969844818 -88.14930260181427 27.775298953056335 -41.459999084472656 -86.58439993858337 1.669670082628727 -34.04420077800751 5.448980033397675 8.249401162174763e-10 -5.177298589842394e-09 1.8417267710901797e-09 1.3812950783176348e-09 -8.932374839787371e-09 3.192326403222978e-09 8.249401162174763e-10 -5.177298589842394e-09 1.8417267710901797e-09 -7.7309102565050125 5.474880114197731 -0.41731400415301323 8.249401162174763e-10 -5.177298589842394e-09 1.8417267710901797e-09 -2.905540131032467 0.9651830233633518 -0.102901995414868 8.249401162174763e-10 -5.177298589842394e-09 1.8417267710901797e-09 -10.27859978377819 0.7318009994924068 -0.025912300043273717 8.249401162174763e-10 -5.177298589842394e-09 1.8417267710901797e-09 -2.221670038998127 -0.733487019315362 0.2089200052432716 0.0 0.0 0.0 -16.856200397014618 -61.214200258255005 -4.967630133032799 -1.7864600010216236 66.50759875774384 1.621409934014082 -3.658209890127182 -15.70850059390068 -5.0037698820233345 0.0 0.0 0.0 22.156599462032318 -36.89189940690994 -8.57760988175869 0.06826860015280545 32.455600798130035 -0.7777879759669304 -0.5214120028540492 8.3799297362566 10.257600098848343
-2.670899987220764 71.34190368652344 5.077500104904175 95.0849962234497 84.42259848117828 103.5479986667633 -4.194529987871647 20.703900307416916 2.3368199542164803 -1.0701599903404713 -12.258199453353882 0.5269259959459305 -0.9763010311871767 9.533419758081436 4.948489889502525 -5.795839950442314 -24.55979973077774 8.83439987897873 0.0 0.0 0.0 0.0 0.0 0.0 0.0 0.0 0.0 -6.223520189523697 19.029700309038162 51.49989902973175 -27.849400341510773 -29.769800305366516 66.86740100383759 -0.028363399032969028 5.669729858636856 0.7984109781682491 -1.4784973245696165e-09 1.4478018783847801e-09 -1.3710632629226893e-09 -2.5566748718119925e-09 2.511910679459106e-09 -2.3635493562323973e-09 -1.4784973245696165e-09 1.4478018783847801e-09 -1.3710632629226893e-09 7.7309102565050125 5.474880114197731 0.41731400415301323 -1.4784973245696165e-09 1.4478018783847801e-09 -1.3710632629226893e-09 2.905540131032467 0.9651830233633518 0.102901995414868 -1.4784973245696165e-09 1.4478018783847801e-09 -1.3710632629226893e-09 10.27859978377819 0.7318009994924068 0.025912300043273717 -1.4784973245696165e-09 1.4478018783847801e-09 -1.3710632629226893e-09 2.221670038998127 -0.733487019315362 -0.2089200052432716 0.0 0.0 0.0 3.206299915909767 34.04609978199005 -96.51990294456482 27.621798813343048 -42.071899473667145 -87.72019743919373 1.6250399686396122 -33.64670008420944 5.367940105497837 1.5872103631409118e-09 -6.497202775790356e-09 2.1026380636612885e-09 2.688409495021915e-09 -1.1244765119045042e-08 3.673221726785414e-09 1.5872103631409118e-09 -6.497202775790356e-09 2.1026380636612885e-09 -7.7309102565050125 5.474880114197731 -0.41731400415301323 1.5872103631409118e-09 -6.497202775790356e-09 2.1026380636612885e-09 -2.905540131032467 0.9651830233633518 -0.102901995414868 1.5872103631409118e-09 -6.497202775790356e-09 2.1026380636612885e-09 -10.27859978377819 0.7318009994924068 -0.025912300043273717 1.5872103631409118e-09 -6.497202775790356e-09 2.1026380636612885e-09 -2.221670038998127 -0.733487019315362 0.2089200052432716 0.0 0.0 0.0 -11.795900613069534 -59.61229920387268 0.7924549654126167 -1.7370200157165527 66.2393993139267 1.637940052896738 -3.9043498411774635 -16.301900446414948 -5.956970304250717 0.0 0.0 0.0 20.335899889469147 -44.188599586486816 -6.218680143356323 0.18185699824243784 36.744900941848755 -0.7134430389851332 0.0752101989928633 7.053539827466011 5.675489902496338
-3.016899973154068 71.44529724121094 6.6905001401901245 148.06599497795105 80.13020038604736 156.28600001335144 -3.5572200268507004 21.120499670505524 2.308409996330738 -0.6804279796779156 -12.374500036239624 0.5871459888294339 -0.05569270171690732 10.024899691343307 5.460430048406124 -7.412300035357475 -24.591101109981537 9.421880096197128 0.0 0.0 0.0 0.0 0.0 0.0 0.0 0.0 0.0 -5.832179859280586 24.503100514411926 49.60650086402893 -28.09420019388199 -31.21150106191635 69.18229758739471 0.007915280002634972 0.45708999037742615 0.06321929977275431 1.1370104857633123e-09 -5.3870508054387756e-09 -1.2431655704858713e-09 1.965787532753893e-09 -9.316067917097826e-09 -2.148681232938543e-09 1.1370104857633123e-09 -5.3870508054387756e-09 -1.2431655704858713e-09 7.7309102565050125 5.474880114197731 0.41731400415301323 1.1370104857633123e-09 -5.3870508054387756e-09 -1.2431655704858713e-09 2.905540131032467 0.9651830233633518 0.102901995414868 1.1370104857633123e-09 -5.3870508054387756e-09 -1.2431655704858713e-09 10.27859978377819 0.7318009994924068 0.025912300043273717 1.1370104857633123e-09 -5.3870508054387756e-09 -1.2431655704858713e-09 2.221670038998127 -0.733487019315362 -0.2089200052432716 0.0 0.0 0.0 6.845250204205513 29.457899630069733 -104.58100318908691 27.423900067806244 -42.75359898805618 -89.02369737625122 1.6881300508975983 -34.19380098581314 5.480369925498962 2.2241408714762656e-09 -5.381934897741303e-09 1.396642801410053e-09 3.8023983961466e-09 -9.372342901770025e-09 2.4709834178793244e-09 2.2241408714762656e-09 -5.381934897741303e-09 1.396642801410053e-09 -7.7309102565050125 5.474880114197731 -0.41731400415301323 2.2241408714762656e-09 -5.381934897741303e-09 1.396642801410053e-09 -2.905540131032467 0.9651830233633518 -0.102901995414868 2.2241408714762656e-09 -5.381934897741303e-09 1.396642801410053e-09 -10.27859978377819 0.7318009994924068 -0.025912300043273717 2.2241408714762656e-09 -5.381934897741303e-09 1.396642801410053e-09 -2.221670038998127 -0.733487019315362 0.2089200052432716 0.0 0.0 0.0 -7.155420184135437 -57.88219928741455 6.290989816188812 -1.7182700335979462 66.3664984703064 1.7384900338947773 -4.159419871866703 -16.961400657892227 -6.998860314488411 0.0 0.0 0.0 17.68049955368042 -50.94829738140106 -2.381910067051649 0.3350540064275265 42.288600504398346 -0.7368769962340593 0.3633070131763816 4.988809861242771 2.819029837846756
